<svg xmlns="http://www.w3.org/2000/svg" viewBox="0 0 36 36"><path fill="#E1E8ED" d="M31.982 30.178c.003-.06.018-.117.018-.178 0-1.656-1.344-3-3-3-1.027 0-1.932.518-2.473 1.305C26.057 28.11 25.541 28 25 28c-2.209 0-4 1.791-4 4s1.791 4 4 4c1.365 0 2.568-.687 3.29-1.731C28.77 35.289 29.798 36 31 36c1.657 0 3-1.343 3-3 0-1.312-.846-2.414-2.018-2.822zM11 28c-.542 0-1.056.11-1.527.305C8.932 27.518 8.027 27 7 27c-1.656 0-3 1.344-3 3 0 .061.014.118.018.178C2.846 30.586 2 31.688 2 33c0 1.657 1.343 3 3 3 1.202 0 2.231-.711 2.709-1.731C8.432 35.313 9.634 36 11 36c2.209 0 4-1.791 4-4s-1.791-4-4-4z" /><path fill="#F5F8FA" d="M15.391 20.08c-.453-.195-.979-.027-1.239.39l-5 8c-.192.309-.203.697-.026 1.015.176.318.51.515.874.515h3c.459 0 .859-.312.97-.758l2-8c.119-.476-.126-.97-.579-1.162zm11.457 8.39l-5-8c-.262-.418-.787-.584-1.238-.39-.453.192-.699.686-.579 1.162l2 8c.111.446.51.758.969.758h3c.363 0 .698-.197.875-.516.176-.317.166-.706-.027-1.014z" /></svg>