<svg xmlns="http://www.w3.org/2000/svg" viewBox="0 0 36 36"><path fill="#5DADEC" d="M24 16h4v19l-4-.046V16zM8 35l4-.046V16H8v19z" /><ellipse fill="#5DADEC" cx="18" cy="34" rx="18" ry="2" /><path fill="#664500" d="M14.999 18c-.15 0-.303-.034-.446-.105-3.512-1.756-7.07-.018-7.105 0-.495.249-1.095.046-1.342-.447-.247-.494-.047-1.095.447-1.342.182-.09 4.498-2.197 8.895 0 .494.247.694.848.447 1.342-.176.35-.529.552-.896.552zm14 0c-.15 0-.303-.034-.446-.105-3.513-1.756-7.07-.018-7.105 0-.494.248-1.094.047-1.342-.447-.247-.494-.047-1.095.447-1.342.182-.09 4.501-2.196 8.895 0 .494.247.694.848.447 1.342-.176.35-.529.552-.896.552z" /></svg>