<svg xmlns="http://www.w3.org/2000/svg" viewBox="0 0 36 36"><path fill="#F19020" d="M17.276 35.149s1.265-.411 1.429-1.352c.173-.972-.624-1.167-.624-1.167s1.041-.208 1.172-1.376c.123-1.101-.861-1.363-.861-1.363s.97-.4 1.016-1.539c.038-.959-.995-1.428-.995-1.428s5.038-1.221 5.556-1.341c.516-.12 1.32-.615 1.069-1.694-.249-1.08-1.204-1.118-1.697-1.003-.494.115-6.744 1.566-8.9 2.068l-1.439.334c-.54.127-.785-.11-.404-.512.508-.536.833-1.129.946-2.113.119-1.035-.232-2.313-.433-2.809-.374-.921-1.005-1.649-1.734-1.899-1.137-.39-1.945.321-1.542 1.561.604 1.854.208 3.375-.833 4.293-2.449 2.157-3.588 3.695-2.83 6.973.828 3.575 4.377 5.876 7.952 5.048l3.152-.681z" /></svg>