<svg xmlns="http://www.w3.org/2000/svg" viewBox="0 0 36 36"><circle fill="#55ACEE" cx="2.5" cy="33.5" r="1.5" /><path fill="#EA596E" d="M4.864 29.246L2.526 23.63.412 29.675zM26 5l-4 1 1-4z" /><circle fill="#55ACEE" cx="29" cy="2" r="2" /><path fill="#DD2E44" d="M17.179 2.72c-.043-.049-.11-.076-.189-.091 0 0-15.924-3.023-16.613-2.415C-.311.823.74 16.998.74 16.998c.005.081.023.15.067.199.604.684 4.758-2.004 9.279-6.001 4.522-3.998 7.697-7.792 7.093-8.476z" /><path fill="#77B255" d="M31.999 13L36 7.999 33 6z" /><path fill="#EA596E" d="M.349.271C.334.301.321.342.311.394.47 1.765 2.006 13.046 2.963 16.572c1.436-.803 2.895-1.894 4.609-3.253C6.116 10.654 1.158.146.349.271z" /></svg>