<svg xmlns="http://www.w3.org/2000/svg" viewBox="0 0 36 36"><path fill="#664500" d="M22 27c0 2.763-1.791 3-4 3-2.21 0-4-.237-4-3 0-2.761 1.79-6 4-6 2.209 0 4 3.239 4 6zm8-12c-.124 0-.25-.023-.371-.072-5.229-2.091-7.372-5.241-7.461-5.374-.307-.46-.183-1.081.277-1.387.459-.306 1.077-.184 1.385.274.019.027 1.93 2.785 6.541 4.629.513.206.763.787.558 1.3-.157.392-.533.63-.929.63zM6 15c-.397 0-.772-.238-.929-.629-.205-.513.044-1.095.557-1.3 4.612-1.844 6.523-4.602 6.542-4.629.308-.456.929-.577 1.387-.27.457.308.581.925.275 1.383-.089.133-2.232 3.283-7.46 5.374C6.25 14.977 6.124 15 6 15z" /><ellipse fill="#E75A70" cx="18" cy="27" rx="3" ry="2" /></svg>