<svg xmlns="http://www.w3.org/2000/svg" viewBox="0 0 36 36"><path fill="#65471B" d="M9.296 6.351c-.164-.088-.303-.224-.391-.399-.216-.428-.04-.927.393-1.112 4.266-1.831 7.699-.043 7.843.034.433.231.608.747.391 1.154-.216.405-.74.546-1.173.318-.123-.063-2.832-1.432-6.278.047-.257.109-.547.085-.785-.042zm12.135 3.75c-.156-.098-.286-.243-.362-.424-.187-.442.023-.927.468-1.084 4.381-1.536 7.685.48 7.823.567.415.26.555.787.312 1.178-.242.39-.776.495-1.191.238-.12-.072-2.727-1.621-6.267-.379-.266.091-.553.046-.783-.096z" /><path fill="#65471B" d="M14.524 21.036c-.145-.116-.258-.274-.312-.464-.134-.46.13-.918.59-1.021 4.528-1.021 7.577 1.363 7.706 1.465.384.306.459.845.173 1.205-.286.358-.828.401-1.211.097-.11-.084-2.523-1.923-6.182-1.098-.274.061-.554-.016-.764-.184z" /></svg>