<svg xmlns="http://www.w3.org/2000/svg" viewBox="0 0 36 36"><path fill="#FFF" d="M24.985 21.833c2.209 0 4 1.791 4 4s-1.791 4-4 4h-14c-2.209 0-4-1.791-4-4s1.791-4 4-4h14z" /><path fill="#1C6399" d="M24.985 20.812h-14c-2.757 0-5 2.243-5 5s2.243 5 5 5h14c2.757 0 5-2.243 5-5s-2.243-5-5-5zm0 2c1.483 0 2.71 1.084 2.949 2.5h-3.449v-2.5h.5zm-1.5 0v2.5h-3v-2.5h3zm-4 0v2.5h-3v-2.5h3zm-4 0v2.5h-3v-2.5h3zm-4.5 0h.5v2.5h-3.45c.24-1.415 1.467-2.5 2.95-2.5zm0 6c-1.483 0-2.71-1.084-2.949-2.5h3.449v2.5h-.5zm1.5 0v-2.5h3v2.5h-3zm4 0v-2.5h3v2.5h-3zm4 0v-2.5h3v2.5h-3zm4.5 0h-.5v-2.5h3.449c-.239 1.416-1.466 2.5-2.949 2.5z" /></svg>