<svg xmlns="http://www.w3.org/2000/svg" viewBox="0 0 36 36"><path fill="#664500" d="M23.186 29.526c-.993 0-1.952-.455-2.788-1.339-2.816-2.985-3.569-2.333-4.817-1.251-.781.679-1.754 1.523-3.205 1.523-2.351 0-3.969-2.302-4.036-2.4-.314-.454-.2-1.077.254-1.391.451-.312 1.074-.2 1.39.251.301.429 1.317 1.54 2.393 1.54.704 0 1.256-.479 1.895-1.033 1.816-1.578 3.764-2.655 7.583 1.388.823.873 1.452.774 1.908.592 1.659-.665 3.205-3.698 3.197-5.15-.003-.552.442-1.002.994-1.005h.006c.55 0 .997.444 1 .995.012 2.103-1.854 5.976-4.454 7.017-.443.175-.885.262-1.32.263z" /><path fill="#65471B" d="M6.001 11c-.552 0-1-.448-1-1 0-.551.445-.998.996-1 .156-.002 3.569-.086 6.205-3.6.331-.44.957-.532 1.4-.2.442.331.531.958.2 1.4-3.263 4.35-7.617 4.4-7.801 4.4zm24.986 2.393c.128.537-.204 1.077-.741 1.205-.536.128-1.074-.202-1.204-.737-.038-.151-.911-3.452-4.941-5.201-.505-.22-.739-.808-.519-1.315.22-.507.809-.739 1.315-.519 4.989 2.165 6.047 6.388 6.09 6.567z" /></svg>