<svg xmlns="http://www.w3.org/2000/svg" viewBox="0 0 36 36"><path fill="#F5F8FA" d="M31 13.5c0 3.59-2.91 6.5-6.5 6.5S18 17.09 18 13.5 20.91 7 24.5 7 31 9.91 31 13.5z" /><circle fill="#292F33" cx="24.5" cy="13.5" r="2.5" /><path fill="#66471B" d="M15.457 15.815c-.06-.135-1.499-3.297-4.457-3.297-2.957 0-4.397 3.162-4.457 3.297-.092.207-.032.449.144.591.177.143.427.147.61.014.013-.009 1.262-.902 3.703-.902 2.426 0 3.674.881 3.702.901.088.066.193.099.298.099.11 0 .221-.037.311-.109.179-.142.238-.386.146-.594z" /></svg>