<svg xmlns="http://www.w3.org/2000/svg" viewBox="0 0 36 36"><path fill="#664500" d="M27.335 22.629c-.178-.161-.444-.171-.635-.029-.039.029-3.922 2.9-8.7 2.9-4.766 0-8.662-2.871-8.7-2.9-.191-.142-.457-.13-.635.029-.177.16-.217.424-.094.628C8.7 23.472 11.788 28.5 18 28.5s9.301-5.028 9.429-5.243c.123-.205.084-.468-.094-.628zM26 19c-.419 0-.809-.265-.948-.684C24.849 17.717 24.033 16 23 16c-1.062 0-1.889 1.827-2.052 2.316-.175.523-.736.808-1.265.632-.523-.174-.807-.74-.632-1.265C19.177 17.307 20.355 14 23 14s3.823 3.307 3.948 3.684c.175.524-.108 1.091-.632 1.265-.105.034-.212.051-.316.051zm-10 0c-.419 0-.809-.265-.949-.684C14.848 17.717 14.034 16 13 16c-1.062 0-1.888 1.827-2.051 2.316-.175.523-.738.808-1.265.632-.524-.174-.807-.74-.632-1.265C9.177 17.307 10.355 14 13 14s3.823 3.307 3.949 3.684c.175.524-.108 1.091-.632 1.265-.106.034-.213.051-.317.051z" /></svg>