<svg xmlns="http://www.w3.org/2000/svg" viewBox="0 0 36 36"><g fill="#292F33"><ellipse cx="12" cy="14.5" rx="2" ry="3.5" /><ellipse cx="24" cy="14.5" rx="2" ry="3.5" /><path d="M31.001 14c-.305 0-.604-.138-.801-.4-2.641-3.521-6.061-3.599-6.206-3.6-.55-.006-.994-.456-.991-1.005C23.006 8.444 23.45 8 24 8c.184 0 4.537.05 7.8 4.4.332.442.242 1.069-.2 1.4-.18.135-.39.2-.599.2zM4.999 14c-.208 0-.419-.065-.599-.2-.442-.331-.531-.958-.2-1.4C7.462 8.05 11.816 8 12 8c.552 0 1 .448 1 1 0 .551-.445.998-.996 1-.156.002-3.569.086-6.205 3.6-.195.262-.496.4-.8.4z" /></g></svg>