<svg xmlns="http://www.w3.org/2000/svg" viewBox="0 0 36 36"><g fill="#292F33"><ellipse cx="12" cy="14.5" rx="2" ry="3.5" /><ellipse cx="24" cy="14.5" rx="2" ry="3.5" /><path d="M21 12c-.256 0-.512-.098-.707-.293-.391-.391-.391-1.023 0-1.414C24.537 6.049 28.819 6 29 6c.553 0 1 .448 1 1 0 .551-.445.998-.995 1-.065.001-3.687.096-7.298 3.707-.195.195-.451.293-.707.293zm-6 0c-.256 0-.512-.098-.707-.293C10.667 8.082 7.031 8 6.995 8c-.551-.006-.995-.455-.992-1.005C6.006 6.444 6.45 6 7 6c.18 0 4.463.049 8.707 4.293.391.391.391 1.023 0 1.414-.195.195-.451.293-.707.293z" /></g></svg>