<svg xmlns="http://www.w3.org/2000/svg" viewBox="0 0 36 36"><path fill="#FEE7B8" d="M11.039 21.502c-1.801-.14-3.389-.016-4.762.234.198.292.386.6.565.924 1.208-.193 2.586-.279 4.12-.162.28.041.516-.184.537-.46.02-.275-.185-.516-.46-.536zm-1.321-2.143c-4.002-1.25-7.396-.772-8.742-.488.206-.024.421-.042.666-.042.889 0 1.71.26 2.457.722 1.482-.021 3.326.14 5.321.764.049.016.1.022.149.022.213 0 .41-.137.477-.351.083-.263-.064-.544-.328-.627zm20.053 2.386c-1.384-.256-2.988-.384-4.809-.243-.275.02-.481.261-.46.536.021.275.257.501.537.46 1.554-.118 2.95-.03 4.17.169.177-.323.364-.631.562-.922zm2.183-2.194c.747-.462 1.568-.722 2.458-.722.216 0 .403.018.589.037-1.361-.284-4.739-.75-8.718.493-.264.083-.411.363-.328.627.067.214.264.351.477.351.049 0 .1-.007.149-.022 2.018-.632 3.883-.79 5.373-.764z" /></svg>