<svg xmlns="http://www.w3.org/2000/svg" viewBox="0 0 36 36"><path fill="#FFF" d="M20.97 31.069c0-1.368-1.379-1.901-2.487-2.329-.737-.284-1.434-.554-1.434-.943 0-.643.861-.675 1.034-.675.609 0 .912.229 1.18.43.205.155.418.315.713.315.55 0 .801-.388.801-.747 0-.717-.879-1.224-1.812-1.437V25.3c0-.505-.411-.916-.916-.916s-.916.411-.916.916v.415c-1.115.324-1.799 1.145-1.799 2.179 0 1.278 1.261 1.803 2.373 2.265.797.331 1.549.644 1.549 1.132 0 .357-.448.743-1.173.743-.731 0-1.15-.292-1.52-.551-.255-.178-.497-.347-.785-.347-.419 0-.748.354-.748.804 0 .663.907 1.322 2.102 1.554v.459c0 .504.411.914.917.914.505 0 .915-.41.915-.914l-.003-.486c1.263-.309 2.009-1.193 2.009-2.398z" /></svg>