<svg xmlns="http://www.w3.org/2000/svg" viewBox="0 0 36 36"><path fill="#E6E7E8" d="M34.979 12.068c-.136-.389-.271-.779-.432-1.155-.357-.831-.787-1.621-1.259-2.382-.262-.422-.54-.83-.835-1.228-.402-.542-.831-1.06-1.29-1.553-.293-.315-.596-.618-.911-.911l-.123-.112c-.647-.592-1.324-1.151-2.053-1.645-.439-.297-.895-.57-1.361-.828-1.125-.624-2.323-1.128-3.579-1.501l-7.421 1.351-4.41-.803c-1.08.434-2.107.968-3.072 1.593-.373.242-.731.501-1.083.769l-.12.089C6.32 4.3 5.649 4.894 5.029 5.54c-.247.257-.488.52-.72.792-.039.045-.082.086-.12.132-.301.36-.58.738-.852 1.121-.182.255-.355.516-.524.781-.335.527-.64 1.072-.92 1.634-.192.386-.381.774-.545 1.176L9.8 9.638l25.825 4.7c-.161-.779-.388-1.532-.646-2.27z" /></svg>