<svg xmlns="http://www.w3.org/2000/svg" viewBox="0 0 36 36"><path fill="#664500" d="M27.677 10.983C27.626 10.861 26.392 8 23.856 8c-2.534 0-3.768 2.861-3.819 2.983-.08.188-.028.406.123.536.149.128.365.132.523.012.01-.009 1.081-.816 3.173-.816 2.079 0 3.149.797 3.174.816.075.059.165.089.255.089.095 0 .189-.034.267-.099.153-.129.205-.35.125-.538zm-11 0C16.625 10.861 15.392 8 12.856 8c-2.534 0-3.768 2.861-3.82 2.983-.079.188-.028.406.124.536.15.128.366.132.523.012.011-.009 1.081-.816 3.173-.816 2.08 0 3.149.797 3.173.816.076.059.165.089.255.089.095 0 .189-.034.267-.099.154-.129.205-.35.126-.538z" /></svg>