<svg xmlns="http://www.w3.org/2000/svg" viewBox="0 0 36 36"><path fill="#65471B" d="M27.335 23.629c-.178-.161-.444-.171-.635-.029-.03.022-2.259 1.668-5.411 2.47-.443.113-1.864.43-3.286.431-1.424 0-2.849-.318-3.292-.431-3.152-.802-5.381-2.448-5.411-2.47-.19-.142-.457-.132-.635.029-.178.16-.217.423-.094.628.097.162 1.885 3.067 5.429 4.481v-1.829c-.016-.004 1.45.378 2.446.486.366.042.737.076 1.117.089.146.005.289.016.437.016.148 0 .291-.011.438-.016.38-.013.751-.046 1.117-.089.996-.108 2.462-.49 2.446-.486v1.829c3.544-1.414 5.332-4.319 5.429-4.481.122-.205.083-.468-.095-.628zm-.711-9.605c0 1.714-.938 3.104-2.096 3.104-1.157 0-2.096-1.39-2.096-3.104s.938-3.104 2.096-3.104c1.158 0 2.096 1.39 2.096 3.104zm-17.167 0c0 1.714.938 3.104 2.096 3.104 1.157 0 2.096-1.39 2.096-3.104s-.938-3.104-2.096-3.104c-1.158 0-2.096 1.39-2.096 3.104z" /></svg>