<svg xmlns="http://www.w3.org/2000/svg" viewBox="0 0 36 36"><path fill="#664500" d="M13 28s1-4 5-4 5 4 5 4-1-1-5-1-5 1-5 1zm15.957-10.203c-.06-.135-1.499-3.297-4.457-3.297-2.957 0-4.397 3.162-4.457 3.297-.092.207-.032.449.145.592.175.142.426.146.61.014.012-.01 1.262-.903 3.702-.903 2.426 0 3.674.881 3.702.901.088.066.194.099.298.099.11 0 .221-.037.312-.109.177-.142.238-.386.145-.594zm-13 0c-.06-.135-1.499-3.297-4.457-3.297-2.957 0-4.397 3.162-4.457 3.297-.092.207-.032.449.144.592.176.142.427.146.61.014.013-.01 1.262-.903 3.703-.903 2.426 0 3.674.881 3.702.901.088.066.194.099.298.099.11 0 .221-.037.311-.109.179-.142.238-.386.146-.594z" /></svg>