<svg xmlns="http://www.w3.org/2000/svg" viewBox="0 0 36 36"><path fill="#F5F8FA" d="M17.322 19.872c-.016-.062-.053-.113-.079-.17-.03-.066-.05-.135-.094-.194-.161-.218-.405-.374-.694-.415h-.001c-.137-.019-.274-.011-.406.022-.091.023-.169.071-.249.117-.038.021-.08.03-.115.056-.111.082-.206.185-.278.305-2.934 4.89-9.942 7.944-10.013 7.975-.533.229-.779.846-.55 1.379.171.398.558.636.965.636.138 0 .278-.027.413-.085.223-.096 4.055-1.77 7.425-4.712-2.068 3.825-5.23 5.995-5.273 6.025-.481.323-.61.974-.288 1.456.203.302.535.467.874.467.2 0 .402-.057.581-.176.273-.183 6.703-4.549 7.807-12.274.018-.14.009-.279-.025-.412z" /></svg>