<svg xmlns="http://www.w3.org/2000/svg" viewBox="0 0 36 36"><path fill="#65471B" d="M22.409 30.743c-.02 0-.042-.002-.064-.006-.184-.034-.305-.212-.269-.397.059-.312-.002-.587-.187-.839-.59-.808-2.289-1.175-2.894-1.248-.186-.022-.319-.192-.296-.377.022-.186.184-.321.377-.296.101.011 2.474.31 3.36 1.521.298.407.401.868.306 1.368-.031.161-.173.274-.333.274zm-3.259 4.73c-.253 0-.53-.031-.833-.102-.61-.144-1.04-.499-1.18-.975-.118-.401-.01-.825.289-1.135.388-.402 1.003-.534 1.695-.358.181.046.291.231.245.413-.046.18-.229.291-.413.245-.445-.114-.825-.05-1.038.171-.128.132-.175.309-.127.473.069.236.319.421.685.506 1.18.277 1.833-.186 2.174-.625.508-.653.568-1.538.387-1.885-.422-.812-2.049-.992-2.64-.993-.187 0-.339-.152-.339-.339 0-.187.152-.339.339-.339.103 0 2.542.015 3.242 1.359.305.585.218 1.751-.454 2.614-.308.394-.943.97-2.032.97zm-4.928-22.251c0 1.391-.846 2.519-1.889 2.519-1.043 0-1.889-1.127-1.889-2.519 0-1.391.845-2.519 1.889-2.519 1.043.001 1.889 1.128 1.889 2.519zm15.664-2.951c.222 0 .445-.069.637-.213.47-.352.564-1.018.212-1.487-3.466-4.622-8.092-4.675-8.287-4.675-.587 0-1.062.476-1.062 1.063 0 .585.473 1.06 1.058 1.062.166.002 3.792.091 6.592 3.825.208.278.527.425.85.425zm-8.108 2.951c0 1.391.846 2.519 1.889 2.519 1.043 0 1.889-1.127 1.889-2.519 0-1.391-.845-2.519-1.889-2.519-1.044.001-1.889 1.128-1.889 2.519zM6.114 10.271c-.222 0-.445-.069-.637-.213-.469-.352-.564-1.018-.212-1.487 3.466-4.622 8.092-4.675 8.287-4.675.587 0 1.062.476 1.062 1.063 0 .585-.473 1.06-1.058 1.062-.166.002-3.792.091-6.592 3.825-.208.278-.527.425-.85.425z" /></svg>