<svg xmlns="http://www.w3.org/2000/svg" viewBox="0 0 36 36"><path fill="#F19020" d="M30.126 13.751c-.941-.244-1.009.386-2.202.246-1.168-.137.429-.739-.195-1.092-.21-.119-.511-.144-.882-.098-1.052.129-16.954.544-17.547.83-.527.254-.839.548-1.318.101-.603-.562-1.466-.238-1.716-.051-.322.242-.389.722.234 1.277.621.42 1.673.859 3.465 1.159.197.033.365.046.522.052 1.227.041 1.397-1.67 3.13-1.716 1.136-.03 11.153 1.07 11.978.958.101-.014.207-.024.329-.024 1.563 0 1.926 1.45 3.589.316.705-.573 1.811-1.648.613-1.958z" /></svg>