<svg xmlns="http://www.w3.org/2000/svg" viewBox="0 0 36 36"><path fill="#CCD6DD" d="M31.125 3.725c-.24 0-.467.045-.686.109-.688-.845-1.723-1.396-2.898-1.396-.087 0-.169.02-.255.026-.734-.827-1.794-1.359-2.987-1.359-1.505 0-2.8.839-3.486 2.066-.346-.798-1.139-1.357-2.064-1.357-.718 0-1.349.342-1.761.865C16.48 1.209 15.1.147 13.458.147c-1.323 0-2.48.689-3.148 1.723-.184-.029-.368-.058-.56-.058-1.432 0-2.661.812-3.293 1.992-.203-.038-.41-.063-.624-.063-1.864 0-3.375 1.511-3.375 3.375s1.511 3.375 3.375 3.375c.588 0 1.135-.159 1.614-.425.376.282.838.456 1.345.456.145 0 .285-.016.422-.043.855 1.379 2.367 2.303 4.109 2.303 1.709 0 3.206-.885 4.073-2.217.72.882 1.802 1.457 3.029 1.457 1.815 0 3.327-1.238 3.776-2.911.034.001.065.01.099.01.283 0 .559-.031.826-.087.654.556 1.491.904 2.417.904 1.174 0 2.21-.551 2.897-1.396.219.064.446.109.686.109 1.36 0 2.463-1.103 2.463-2.463s-1.104-2.463-2.464-2.463z" /></svg>