<svg xmlns="http://www.w3.org/2000/svg" viewBox="0 0 36 36"><path fill="#E1E8ED" d="M19.876 5.903c0-1.193-.967-2.161-2.16-2.161-.368 0-.71.101-1.013.263-.251-.601-.844-1.024-1.537-1.024-.567 0-1.067.285-1.368.718-.67-.623-1.561-1.013-2.548-1.013-1.755 0-3.216 1.21-3.625 2.838-.365-.367-.87-.595-1.429-.595-1.111 0-2.012.901-2.012 2.012s.901 2.012 2.012 2.012c.703 0 1.319-.361 1.679-.907.517 1.081 1.529 1.873 2.749 2.079.39.67 1.107 1.125 1.938 1.125 1.074 0 1.969-.754 2.193-1.76.324.18.691.292 1.087.292 1.07 0 1.962-.749 2.19-1.75 1.042-.155 1.844-1.044 1.844-2.129z" /></svg>