<svg xmlns="http://www.w3.org/2000/svg" viewBox="0 0 36 36"><path fill="#292F33" d="M26.125 29.261c-.028 0-.057-.003-.084-.01-8.424-1.942-15.996-.022-16.072-.002-.111.028-.231.005-.324-.066-.091-.072-.145-.181-.145-.297 0-3.178 3.713-6.872 8.5-6.872s8.5 3.694 8.5 6.872c0 .114-.052.223-.142.294-.067.052-.149.081-.233.081zM29 12c-5.554 0-7.802-4.367-7.895-4.553-.247-.494-.047-1.095.447-1.342.493-.247 1.092-.048 1.34.443C22.967 6.694 24.713 10 29 10c.553 0 1 .448 1 1s-.447 1-1 1zM7 12c-.552 0-1-.448-1-1s.448-1 1-1c5.083 0 5.996-3.12 6.033-3.253.145-.528.692-.848 1.219-.709.53.139.851.673.718 1.205C14.921 7.437 13.704 12 7 12z" /></svg>