<svg xmlns="http://www.w3.org/2000/svg" viewBox="0 0 36 36"><path fill="#E2A62D" d="M13.346 31.273c-.068 0-.137-.009-.205-.028-.398-.113-.63-.527-.517-.926.437-1.54.258-3.029-.49-4.086-.497-.702-1.205-1.131-1.943-1.178-.414-.025-.728-.382-.702-.795s.381-.751.795-.701c1.193.074 2.313.733 3.073 1.807 1.011 1.429 1.27 3.383.709 5.361-.093.331-.394.546-.72.546zm11.037-3.061c-.142 0-.285-.04-.412-.124-1.167-.77-1.82-2.117-1.792-3.695.029-1.635.809-3.153 1.984-3.869.353-.216.814-.104 1.03.251.216.354.104.814-.251 1.03-.735.448-1.244 1.499-1.264 2.614-.02 1.055.389 1.936 1.118 2.417.346.228.441.693.213 1.039-.144.219-.382.337-.626.337z" /></svg>