<svg xmlns="http://www.w3.org/2000/svg" viewBox="0 0 36 36"><path fill="#BBDDF5" d="M24.266 1.125s-.991-.421-1.317-.521C22.662.516 21.756.328 21.196.22c-.625-.121-1.294-.115-1.294-.115s-.03.402.114 1.025c.116.502.404 1.198.458 1.559.059.391.068.855.141 1.348.064.426.128.88.197 1.342.067.446.182.894.249 1.341.07.464.102.925.167 1.353.074.496-.01.978.049 1.371.121.806.333 1.932.562 1.932.229 0 .431-1.019.552-1.828.059-.391-.027-.695.047-1.188.064-.426.118-.85.188-1.312.067-.446.121-.882.188-1.328.07-.464.061-.916.125-1.344.074-.496.363-1.107.422-1.5.119-.806.905-1.751.905-1.751zM5.875 9.379s.731-.164 1.427-.309c.453-.094.812-.459 1.553-.729.771-.281 1.267-.524 1.267-.524s.063 1.305-.109 1.956c-.139.525-.212 1.203-.276 1.58-.07.408-.109.889-.197 1.404-.076.445-.216.91-.299 1.394-.08.467-.144 1.014-.224 1.481-.083.485-.105.902-.182 1.349-.089.518-.022.57-.093.98-.145.843-.165.727-.212 1.186-.047.459-.394.516-.544.18-.15-.336.009-.521-.136-1.367-.07-.408-.327-1.487-.41-1.97-.08-.467-.188-1.199-.268-1.666-.083-.485-.104-1.267-.181-1.715-.089-.518-.225-.838-.295-1.248-.145-.841-.821-1.982-.821-1.982z" /></svg>