<svg xmlns="http://www.w3.org/2000/svg" viewBox="0 0 36 36"><path fill="#664500" d="M11.016 6.08c-2.255.604-3.48 1.965-3.555 2.05-.364.415-.323 1.047.091 1.412.415.365 1.046.325 1.411-.091.079-.087 2.09-2.253 5.81-1.492.542.111 1.07-.239 1.18-.779.111-.541-.238-1.07-.779-1.18-1.635-.336-3.026-.223-4.158.08zm13.968.001c-1.132-.303-2.523-.416-4.159-.082-.541.111-.89.639-.779 1.18.112.541.639.89 1.18.779 3.724-.762 5.731 1.405 5.814 1.497.367.407 1 .444 1.41.078.41-.366.451-.991.088-1.404-.075-.084-1.3-1.444-3.554-2.048z" /></svg>