<svg xmlns="http://www.w3.org/2000/svg" viewBox="0 0 36 36"><path fill="#664500" d="M8.111 21.383c-.182 0-.367-.05-.532-.154-.467-.294-.607-.911-.313-1.379.916-1.453 3.701-3.938 7.69-2.962.536.131.864.673.733 1.209-.132.536-.676.862-1.209.733-3.604-.882-5.502 2.056-5.521 2.086-.191.302-.516.467-.848.467zm11.973-3.742c-.29 0-.576-.125-.774-.366-.35-.427-.288-1.058.14-1.408 3.176-2.604 6.762-1.562 8.215-.646.467.294.607.912.312 1.379-.293.465-.908.607-1.376.315-.138-.084-3.052-1.823-5.884.499-.186.153-.41.227-.633.227z" /></svg>