<svg xmlns="http://www.w3.org/2000/svg" viewBox="0 0 36 36"><path fill="#664500" d="M16 16.958c-.419 0-.809-.265-.949-.684-.203-.599-1.018-2.316-2.051-2.316-1.062 0-1.888 1.827-2.051 2.316-.175.523-.738.808-1.265.632-.524-.174-.807-.741-.632-1.265.125-.377 1.304-3.684 3.949-3.684s3.823 3.307 3.949 3.684c.175.524-.108 1.091-.632 1.265-.106.036-.213.052-.318.052zm10 0c-.419 0-.809-.265-.948-.684-.203-.599-1.019-2.316-2.052-2.316-1.062 0-1.889 1.827-2.052 2.316-.175.523-.736.808-1.265.632-.523-.174-.807-.741-.632-1.265.125-.377 1.304-3.684 3.948-3.684s3.823 3.307 3.948 3.684c.175.524-.108 1.091-.632 1.265-.104.036-.21.052-.315.052zm1.335 3.733c-.178-.161-.444-.171-.635-.029-.039.029-3.922 2.9-8.7 2.9-4.766 0-8.662-2.871-8.7-2.9-.191-.142-.457-.13-.635.029-.177.16-.217.424-.094.628.129.215 3.217 5.243 9.429 5.243s9.301-5.028 9.429-5.243c.123-.205.084-.467-.094-.628z" /></svg>