<svg xmlns="http://www.w3.org/2000/svg" viewBox="0 0 36 36"><path fill="#FFCC4D" d="M18 0C8.06 0 0 8.06 0 18c0 6.051 2.996 11.392 7.574 14.655C7.678 26.217 5.337 19 1.404 19c-.464 0-.84.066-1.153.183C.554 18.426 1.211 18 2.44 18c4.27 0 6.666 8.506 6.092 15.288C11.286 34.997 14.522 36 18 36c3.479 0 6.716-1.004 9.47-2.713C26.893 26.48 29.288 18 33.561 18c1.233 0 1.892.426 2.192 1.183-.314-.117-.691-.183-1.157-.183-3.938 0-6.278 7.199-6.17 13.655C33.005 29.392 36 24.051 36 18c0-9.94-8.059-18-18-18z" /></svg>