<svg xmlns="http://www.w3.org/2000/svg" viewBox="0 0 36 36"><path d="M28.416 17.723C28.355 17.632 26.901 15.5 24 15.5c-2.9 0-4.355 2.132-4.416 2.223-.135.202-.104.47.071.638.174.167.446.185.643.042.012-.01 1.262-.903 3.702-.903 2.426 0 3.674.881 3.702.901.089.066.194.099.298.099.124 0 .248-.046.344-.137.177-.167.207-.438.072-.64zm-12 0C16.355 17.632 14.901 15.5 12 15.5c-2.9 0-4.355 2.132-4.416 2.223-.134.202-.104.47.071.638.175.167.447.185.642.042.013-.01 1.262-.903 3.703-.903 2.426 0 3.674.881 3.702.901.089.066.194.099.298.099.124 0 .248-.046.344-.137.177-.167.207-.438.072-.64zM31.001 16c-.305 0-.604-.138-.801-.4-2.641-3.521-6.061-3.599-6.206-3.6-.55-.006-.994-.456-.991-1.005.003-.551.447-.995.997-.995.184 0 4.537.05 7.8 4.4.332.442.242 1.069-.2 1.4-.18.135-.39.2-.599.2zM4.999 16c-.208 0-.419-.065-.599-.2-.442-.331-.531-.958-.2-1.4C7.462 10.05 11.816 10 12 10c.552 0 1 .448 1 1 0 .551-.445.998-.996 1-.156.002-3.569.086-6.205 3.6-.195.262-.496.4-.8.4z" fill="#292F33" /></svg>