<svg xmlns="http://www.w3.org/2000/svg" viewBox="0 0 36 36"><path d="M16.226 5.117c-.859-2.431-3.525-3.707-5.956-2.85-1.477.52-2.521 1.711-2.928 3.104-1.191-.829-2.751-1.1-4.225-.58-2.431.857-3.708 3.525-2.85 5.956.122.345.284.663.472.958 1.951 3.582 7.588 6.1 11.002 6.131 2.637-2.167 5.445-7.664 4.717-11.677-.038-.349-.113-.698-.232-1.042zm3.548 0c.859-2.431 3.525-3.707 5.956-2.85 1.477.52 2.521 1.711 2.929 3.104 1.191-.829 2.751-1.1 4.225-.58 2.43.857 3.707 3.525 2.85 5.956-.123.345-.284.663-.473.958-1.951 3.582-7.588 6.1-11.002 6.131-2.637-2.167-5.445-7.664-4.717-11.677.038-.349.113-.698.232-1.042z" fill="#DD2E44" /></svg>