<svg xmlns="http://www.w3.org/2000/svg" viewBox="0 0 36 36"><path fill="#664500" d="M17.312 16.612c-.176-.143-.427-.147-.61-.014-.012.009-1.26.902-3.702.902-2.441 0-3.69-.893-3.7-.9-.183-.137-.435-.133-.611.009-.178.142-.238.386-.146.594.06.135 1.5 3.297 4.457 3.297 2.958 0 4.397-3.162 4.457-3.297.092-.207.032-.449-.145-.591zm10 0c-.176-.143-.426-.148-.61-.014-.012.009-1.261.902-3.702.902-2.44 0-3.69-.893-3.7-.9-.183-.137-.434-.133-.611.009-.178.142-.238.386-.146.594.06.135 1.5 3.297 4.457 3.297 2.958 0 4.397-3.162 4.457-3.297.092-.207.032-.449-.145-.591z" /></svg>