<svg xmlns="http://www.w3.org/2000/svg" viewBox="0 0 36 36"><path fill="#3E721D" d="M11.647 29.647c-.444 0-.857-.28-1.005-.724-.185-.555.115-1.155.669-1.339.095-.033 2.453-.877 2.453-3.231s-2.358-3.198-2.458-3.232c-.55-.191-.846-.791-.659-1.342.187-.552.78-.852 1.334-.665.159.053 3.9 1.344 3.9 5.239s-3.741 5.187-3.9 5.239c-.11.037-.223.055-.334.055zm12.705 0c-.111 0-.223-.018-.334-.055-.159-.053-3.9-1.344-3.9-5.239s3.741-5.187 3.9-5.239c.559-.187 1.154.115 1.339.669.185.553-.113 1.151-.664 1.338-.1.034-2.458.878-2.458 3.232s2.358 3.198 2.458 3.232c.551.191.847.791.66 1.342-.15.442-.561.72-1.001.72z" /></svg>