<svg xmlns="http://www.w3.org/2000/svg" viewBox="0 0 36 36"><path fill="#664500" d="M18 21.5c-9.333 0-10.485 8.354-10.496 8.438-.021.171.046.34.179.449.09.074.203.113.317.113.053 0 .106-.009.158-.025.059-.02 5.968-1.975 9.842-1.975 5.595 0 9.745 1.933 9.786 1.952.161.077.358.06.507-.047.147-.107.226-.286.203-.468C28.485 29.854 27.333 21.5 18 21.5zM29 10c-5.554 0-7.802-4.367-7.895-4.553-.247-.494-.047-1.095.447-1.342.493-.246 1.092-.048 1.34.443C22.967 4.694 24.713 8 29 8c.553 0 1 .448 1 1s-.447 1-1 1zM7 10c-.552 0-1-.448-1-1s.448-1 1-1c5.083 0 5.996-3.12 6.033-3.253.145-.528.692-.848 1.219-.709.53.139.851.673.718 1.205C14.921 5.437 13.704 10 7 10z" /></svg>