<svg xmlns="http://www.w3.org/2000/svg" viewBox="0 0 36 36"><path fill="#664500" d="M6.001 19c-.304 0-.604-.138-.801-.4-.332-.441-.242-1.068.2-1.399.143-.107 2.951-2.183 6.856-2.933C9.781 13.027 7.034 13 6.999 13c-.552-.002-.999-.45-.998-1.002 0-.551.447-.998.999-.998.221 0 5.452.038 8.707 3.293.286.286.372.716.217 1.09-.155.373-.52.617-.924.617-4.613 0-8.363 2.772-8.4 2.8-.18.135-.391.2-.599.2zm23.998-.001c-.208 0-.418-.064-.598-.198C29.363 18.772 25.59 16 21 16c-.404 0-.77-.244-.924-.617-.155-.374-.069-.804.217-1.09C23.549 11.038 28.779 11 29 11c.552 0 .998.447.999.998.001.552-.446 1-.997 1.002-.036 0-2.783.027-5.258 1.268 3.905.75 6.713 2.826 6.855 2.933.441.331.531.956.201 1.398-.196.261-.496.4-.801.4z" /></svg>