<svg xmlns="http://www.w3.org/2000/svg" viewBox="0 0 36 36"><path fill="#664500" d="M20.001 13c-.055 0-.109-.004-.165-.014-.545-.091-.913-.606-.822-1.151C19.407 9.471 21.584 5 27 5c.553 0 1 .448 1 1s-.447 1-1 1c-5.095 0-5.979 4.954-6.014 5.165-.081.488-.505.835-.985.835zm-4.002 0c-.479 0-.902-.345-.985-.833C14.977 11.957 14.059 7 9 7c-.552 0-1-.448-1-1s.448-1 1-1c5.416 0 7.592 4.471 7.986 6.835.091.545-.277 1.06-.822 1.151-.055.01-.111.014-.165.014zm-4.589 4.892c-2.335 0-3.87-.997-3.964-1.06-.459-.306-.583-.927-.277-1.387.306-.46.926-.585 1.387-.277.099.064 2.602 1.636 5.998-.062.495-.247 1.095-.046 1.342.447.247.494.047 1.095-.447 1.342-1.495.746-2.868.997-4.039.997zm13.181 0c-1.172 0-2.545-.251-4.038-.998-.494-.247-.694-.848-.447-1.342.248-.494.848-.694 1.342-.447 3.4 1.7 5.899.126 6.004.059.46-.298 1.081-.17 1.382.289.302.459.179 1.074-.278 1.379-.096.063-1.631 1.06-3.965 1.06zM26.001 27c-.305 0-.604-.138-.801-.4-.025-.034-2.782-3.6-7.2-3.6-4.417 0-7.174 3.566-7.202 3.603-.333.438-.961.525-1.4.194-.44-.332-.529-.956-.198-1.397.135-.18 3.362-4.4 8.8-4.4s8.665 4.221 8.8 4.4c.332.441.242 1.068-.2 1.399-.18.136-.39.201-.599.201z" /></svg>