<svg xmlns="http://www.w3.org/2000/svg" viewBox="0 0 36 36"><path fill="#FFAC33" d="M21.229 3.947c0 .24.03.472.082.696.425 2.643 3.364 5.431 5.47 6.197 1.665-.605 3.846-2.476 4.898-4.539C29.59 3.861 26.86 1.987 23.75.939c-1.432.257-2.521 1.502-2.521 3.008zm-7.486 25.131c.057-.242.09-.494.09-.754 0-1.833-1.486-3.319-3.319-3.319-1.113 0-2.094.549-2.697 1.389-.602-.839-1.584-1.389-2.697-1.389-1.241 0-2.311.689-2.88 1.698 1.824 3.295 4.65 5.957 8.068 7.574 1.637-1.351 3.131-3.307 3.435-5.199zm20.558-3.436c-.282-.95-1.152-1.647-2.194-1.647-.771 0-1.451.38-1.868.962-.417-.582-1.097-.962-1.868-.962-1.27 0-2.299 1.029-2.299 2.299 0 .18.023.354.062.522.307 1.905 2.348 3.896 3.909 4.561 1.776-1.6 3.231-3.547 4.258-5.735z" /></svg>