<svg xmlns="http://www.w3.org/2000/svg" viewBox="0 0 36 36"><path fill="#BBDDF5" d="M35.756 15.188c0-.445-.046 2.24-3.752 3.394-1.461.455-1.288 2.58-1.265 3.152.08 1.975.398 3.892.497 4.392.1.507.507 2.106.602 2.589.105.532.241 2.406.333 2.873.111.563.215.968.3 1.398.184.929.424 1.598.832 1.598.409 0 .416-1.125.599-2.053.085-.429.107-.787.218-1.349.092-.464.363-3.641.465-4.156.097-.491.636-2.568.734-3.067.1-.507.399-2.494.479-2.979.478-2.897-.042-5.791-.042-5.792zM.313 21.375c0-.29.613 1.164 1.148 1.488.69.418 1.23 1.2 2.04 1.887s.808 1.974.776 2.594c-.136 2.656-.486 5.299-.562 5.625-.076.331-.358 2.823-.73 2.823s-.553-.878-.693-1.484l-.225-.977c-.07-.302-.12-.631-.2-.976-.072-.314-.421-2.587-.496-2.913-.076-.331-.406-1.643-.479-1.958-.08-.347-.114-.684-.19-.987-.327-1.3-.389-5.121-.389-5.122z" /></svg>