<svg xmlns="http://www.w3.org/2000/svg" viewBox="0 0 36 36"><path fill="#AA8DD8" d="M10 4C7.42 4 4.369 1.534 3.414.586 2.843.014 1.981-.157 1.235.153.487.462 0 1.191 0 2c0 3.459 1.672 10 8 10 .757 0 1.45-.428 1.789-1.106l2-4c.31-.62.277-1.356-.088-1.946C11.337 4.359 10.693 4 10 4zM34.766.153c-.75-.311-1.607-.139-2.18.434C31.7 1.472 28.589 4 26 4c-.693 0-1.337.359-1.701.949-.364.589-.397 1.326-.088 1.946l2 4C26.55 11.572 27.242 12 28 12c6.328 0 8-6.541 8-10 0-.809-.487-1.538-1.234-1.847z" /></svg>